<svg width="62" height="70" viewBox="0 0 62 70" fill="none" xmlns="http://www.w3.org/2000/svg">
<g opacity="0.5" filter="url(#filter0_d_2068_11)">
<path d="M41.7991 16.7383H19.921C11.607 16.7383 4.86719 23.4781 4.86719 31.792V50.43C4.86719 58.744 11.607 65.4838 19.921 65.4838H41.7991C50.1131 65.4838 56.8529 58.744 56.8529 50.43V31.792C56.8529 23.4781 50.1131 16.7383 41.7991 16.7383Z" fill="url(#paint0_linear_2068_11)"/>
</g>
<g opacity="0.75" filter="url(#filter1_d_2068_11)">
<path d="M21.5762 16.5596C21.5762 8.24566 28.316 1.50586 36.6299 1.50586H46.3313C53.1672 1.50586 58.7088 7.04213 58.7088 13.878C58.7088 16.711 58.7088 19.8301 58.7088 23.0105C58.7088 31.3245 51.969 38.065 43.6551 38.065H36.6299C28.316 38.065 21.5762 31.3252 21.5762 23.0112V16.5596Z" fill="url(#paint1_linear_2068_11)"/>
</g>
<g filter="url(#filter2_d_2068_11)">
<path d="M24.0527 17.2042C24.0527 10.553 29.4445 5.16113 36.0957 5.16113H44.682C50.3785 5.16113 54.9966 9.77468 54.9966 15.4713C54.9966 17.9809 54.9966 20.7601 54.9966 23.5836C54.9966 30.2348 49.6047 35.6271 42.9536 35.6271H36.0957C29.4445 35.6271 24.0527 30.2352 24.0527 23.5841V17.2042Z" fill="url(#paint2_linear_2068_11)"/>
</g>
<g filter="url(#filter3_d_2068_11)">
<path d="M40.1443 1.50586H15.3892C8.55331 1.50586 3.01172 6.96188 3.01172 13.6923V50.2514C3.01172 56.9818 8.55331 62.4378 15.3892 62.4378H46.3331C53.1691 62.4378 58.7106 56.9818 58.7106 50.2514V19.7854L40.1443 1.50586Z" fill="url(#paint3_linear_2068_11)"/>
<path d="M15.3898 1.88184H39.9908L58.3349 19.9427V50.251C58.3349 56.768 52.9673 62.0611 46.3337 62.0611H15.3898C8.75624 62.0611 3.38867 56.768 3.38867 50.251V13.6919C3.38867 7.17487 8.75624 1.88184 15.3898 1.88184Z" stroke="url(#paint4_linear_2068_11)"/>
</g>
<path d="M48.1883 35.6274C48.1883 45.1321 42.3272 52.6883 30.8598 52.6883C19.3414 52.6883 13.5312 45.1321 13.5312 35.6274C13.5312 26.0752 19.3414 18.5664 30.8598 18.5664C42.3272 18.5664 48.1883 26.0752 48.1883 35.6274Z" fill="white"/>
<path d="M48.1883 35.018C48.1883 44.5227 42.3272 52.0789 30.8598 52.0789C19.3414 52.0789 13.5312 44.5227 13.5312 35.018C13.5312 25.4658 19.3414 17.957 30.8598 17.957C42.3272 17.957 48.1883 25.4658 48.1883 35.018Z" fill="url(#paint5_linear_2068_11)"/>
<path d="M48.1883 35.018C48.1883 44.5227 42.3272 52.0789 30.8598 52.0789C19.3414 52.0789 13.5312 44.5227 13.5312 35.018C13.5312 25.4658 19.3414 17.957 30.8598 17.957C42.3272 17.957 48.1883 25.4658 48.1883 35.018Z" fill="url(#paint6_linear_2068_11)"/>
<path d="M36.1862 29.8141L37.2799 28.5735C37.8935 29.1406 38.4226 29.7881 38.8572 30.4982L37.3584 31.2545C37.0292 30.728 36.6385 30.2422 36.1862 29.8141ZM39.4302 31.5844L37.9222 32.3456C38.1373 32.8712 38.2892 33.4261 38.372 34.0021H40.0776C39.9788 33.1548 39.7585 32.3431 39.4302 31.5844ZM26.9317 28.7734C28.0777 28.099 29.4196 27.7058 30.8594 27.7058C32.4789 27.7058 33.9776 28.1998 35.2114 29.0349L36.3069 27.7928C34.776 26.7212 32.8974 26.081 30.8594 26.081C29.061 26.081 27.3942 26.5879 25.9739 27.4402L24.4126 25.2686L22.5965 30.9556H28.4989L26.9317 28.7734ZM38.4445 35.2207C38.4217 36.0023 38.2706 36.7522 38.0107 37.455H39.7838C39.994 36.7416 40.1223 35.9942 40.1425 35.2207H38.4445ZM25.5325 40.2212L24.4396 41.4618C23.8261 40.8947 23.2961 40.2473 22.8624 39.5372L24.3603 38.7808C24.6894 39.3072 25.0802 39.7931 25.5325 40.2212ZM22.2884 38.451L23.7965 37.6897C23.5822 37.1641 23.4303 36.6092 23.3467 36.0332H21.6403C21.7408 36.8806 21.9602 37.6922 22.2884 38.451ZM34.787 41.262C33.6418 41.9363 32.2999 42.3295 30.8594 42.3295C29.2407 42.3295 27.7411 41.8355 26.5081 41.0003L25.4118 42.2426C26.9427 43.3142 28.8222 43.9543 30.8594 43.9543C32.6578 43.9543 34.3254 43.4474 35.7448 42.5951L37.3061 44.7668L39.1222 39.0798H33.2198L34.787 41.262ZM23.2742 34.8146C23.297 34.033 23.4489 33.2831 23.7071 32.5804H21.9348C21.7248 33.2937 21.5956 34.0411 21.5762 34.8146H23.2742Z" fill="white"/>
<g filter="url(#filter4_d_2068_11)">
<path d="M40.1426 1.50586L58.7088 19.7854H47.6695C43.5124 19.7854 40.1426 16.4156 40.1426 12.2585V1.50586Z" fill="white"/>
</g>
<defs>
<filter id="filter0_d_2068_11" x="0.867188" y="14.7383" width="59.9858" height="56.7456" filterUnits="userSpaceOnUse" color-interpolation-filters="sRGB">
<feFlood flood-opacity="0" result="BackgroundImageFix"/>
<feColorMatrix in="SourceAlpha" type="matrix" values="0 0 0 0 0 0 0 0 0 0 0 0 0 0 0 0 0 0 127 0" result="hardAlpha"/>
<feOffset dy="2"/>
<feGaussianBlur stdDeviation="2"/>
<feColorMatrix type="matrix" values="0 0 0 0 0 0 0 0 0 0 0 0 0 0 0 0 0 0 0.06 0"/>
<feBlend mode="normal" in2="BackgroundImageFix" result="effect1_dropShadow_2068_11"/>
<feBlend mode="normal" in="SourceGraphic" in2="effect1_dropShadow_2068_11" result="shape"/>
</filter>
<filter id="filter1_d_2068_11" x="17.5762" y="-0.494141" width="45.1328" height="44.5591" filterUnits="userSpaceOnUse" color-interpolation-filters="sRGB">
<feFlood flood-opacity="0" result="BackgroundImageFix"/>
<feColorMatrix in="SourceAlpha" type="matrix" values="0 0 0 0 0 0 0 0 0 0 0 0 0 0 0 0 0 0 127 0" result="hardAlpha"/>
<feOffset dy="2"/>
<feGaussianBlur stdDeviation="2"/>
<feColorMatrix type="matrix" values="0 0 0 0 0 0 0 0 0 0 0 0 0 0 0 0 0 0 0.06 0"/>
<feBlend mode="normal" in2="BackgroundImageFix" result="effect1_dropShadow_2068_11"/>
<feBlend mode="normal" in="SourceGraphic" in2="effect1_dropShadow_2068_11" result="shape"/>
</filter>
<filter id="filter2_d_2068_11" x="19.0527" y="3.16113" width="40.9438" height="40.4658" filterUnits="userSpaceOnUse" color-interpolation-filters="sRGB">
<feFlood flood-opacity="0" result="BackgroundImageFix"/>
<feColorMatrix in="SourceAlpha" type="matrix" values="0 0 0 0 0 0 0 0 0 0 0 0 0 0 0 0 0 0 127 0" result="hardAlpha"/>
<feOffset dy="3"/>
<feGaussianBlur stdDeviation="2.5"/>
<feColorMatrix type="matrix" values="0 0 0 0 0 0 0 0 0 0 0 0 0 0 0 0 0 0 0.1 0"/>
<feBlend mode="normal" in2="BackgroundImageFix" result="effect1_dropShadow_2068_11"/>
<feBlend mode="normal" in="SourceGraphic" in2="effect1_dropShadow_2068_11" result="shape"/>
</filter>
<filter id="filter3_d_2068_11" x="-1.11133" y="1.38184" width="63.9463" height="69.1792" filterUnits="userSpaceOnUse" color-interpolation-filters="sRGB">
<feFlood flood-opacity="0" result="BackgroundImageFix"/>
<feColorMatrix in="SourceAlpha" type="matrix" values="0 0 0 0 0 0 0 0 0 0 0 0 0 0 0 0 0 0 127 0" result="hardAlpha"/>
<feOffset dy="4"/>
<feGaussianBlur stdDeviation="2"/>
<feColorMatrix type="matrix" values="0 0 0 0 0 0 0 0 0 0 0 0 0 0 0 0 0 0 0.04 0"/>
<feBlend mode="normal" in2="BackgroundImageFix" result="effect1_dropShadow_2068_11"/>
<feBlend mode="normal" in="SourceGraphic" in2="effect1_dropShadow_2068_11" result="shape"/>
</filter>
<filter id="filter4_d_2068_11" x="36.1426" y="-0.494141" width="26.5664" height="26.2798" filterUnits="userSpaceOnUse" color-interpolation-filters="sRGB">
<feFlood flood-opacity="0" result="BackgroundImageFix"/>
<feColorMatrix in="SourceAlpha" type="matrix" values="0 0 0 0 0 0 0 0 0 0 0 0 0 0 0 0 0 0 127 0" result="hardAlpha"/>
<feOffset dy="2"/>
<feGaussianBlur stdDeviation="2"/>
<feColorMatrix type="matrix" values="0 0 0 0 0 0 0 0 0 0 0 0 0 0 0 0 0 0 0.15 0"/>
<feBlend mode="normal" in2="BackgroundImageFix" result="effect1_dropShadow_2068_11"/>
<feBlend mode="normal" in="SourceGraphic" in2="effect1_dropShadow_2068_11" result="shape"/>
</filter>
<linearGradient id="paint0_linear_2068_11" x1="56.8528" y1="65.4838" x2="4.86719" y2="65.4838" gradientUnits="userSpaceOnUse">
<stop stop-color="#F6EDFD"/>
<stop offset="0.65562" stop-color="#FBF0F1"/>
</linearGradient>
<linearGradient id="paint1_linear_2068_11" x1="42.1497" y1="0.591881" x2="24.0493" y2="34.9244" gradientUnits="userSpaceOnUse">
<stop stop-color="#6D83FF"/>
<stop offset="1" stop-color="#2644EF"/>
</linearGradient>
<linearGradient id="paint2_linear_2068_11" x1="41.1973" y1="4.39948" x2="26.1136" y2="33.0099" gradientUnits="userSpaceOnUse">
<stop stop-color="#6D83FF"/>
<stop offset="1" stop-color="#2644EF"/>
</linearGradient>
<linearGradient id="paint3_linear_2068_11" x1="58.7106" y1="62.4378" x2="3.01172" y2="62.4378" gradientUnits="userSpaceOnUse">
<stop stop-color="#F6EDFD"/>
<stop offset="0.65562" stop-color="#FBF0F1"/>
</linearGradient>
<linearGradient id="paint4_linear_2068_11" x1="3.01233" y1="1.50549" x2="53.7434" y2="63.2143" gradientUnits="userSpaceOnUse">
<stop stop-color="white"/>
<stop offset="1" stop-color="white" stop-opacity="0"/>
</linearGradient>
<linearGradient id="paint5_linear_2068_11" x1="13.5312" y1="17.957" x2="47.6489" y2="52.61" gradientUnits="userSpaceOnUse">
<stop stop-color="#D90A2C"/>
<stop offset="0.510417" stop-color="#ED0D50"/>
<stop offset="1" stop-color="#D9230A"/>
</linearGradient>
<linearGradient id="paint6_linear_2068_11" x1="32.7331" y1="17.104" x2="15.8394" y2="49.1477" gradientUnits="userSpaceOnUse">
<stop stop-color="#6D83FF"/>
<stop offset="1" stop-color="#2644EF"/>
</linearGradient>
</defs>
</svg>
