<svg width="150" height="36" viewBox="0 0 150 36" fill="none" xmlns="http://www.w3.org/2000/svg">
<path d="M6.0684 14.362C3.99323 21.2858 5.90301 28.6994 11.4823 32.9068C18.8687 38.477 29.8896 36.3185 36.098 28.0857C42.3065 19.8529 41.3516 8.66332 33.9652 3.09315C28.4981 -1.02966 21.04 -0.918429 15.0158 2.75602L15.2549 5.96756C19.4422 3.39068 24.6404 3.30232 28.4472 6.17304C33.5714 10.0373 34.2338 17.7998 29.9268 23.5112C25.6197 29.2226 17.9742 30.7201 12.85 26.8559C8.87445 23.8578 7.58455 18.5133 9.21741 13.6006L6.0684 14.362Z" fill="#015941"/>
<path d="M15.1592 20.0649L13.8303 0L-0.000273705 14.6673L9.58103 12.4196L15.1592 20.0649Z" fill="#015941"/>
<path d="M48.16 29V6.65H57.58C59.06 6.65 60.32 6.91 61.36 7.43C62.42 7.93 63.23 8.65 63.79 9.59C64.37 10.51 64.66 11.63 64.66 12.95C64.66 13.97 64.38 14.93 63.82 15.83C63.28 16.71 62.41 17.44 61.21 18.02V16.13C62.31 16.55 63.18 17.07 63.82 17.69C64.46 18.31 64.91 19 65.17 19.76C65.43 20.52 65.56 21.32 65.56 22.16C65.56 24.3 64.85 25.98 63.43 27.2C62.03 28.4 60.08 29 57.58 29H48.16ZM52.24 25.4H58C59.06 25.4 59.9 25.11 60.52 24.53C61.16 23.93 61.48 23.14 61.48 22.16C61.48 21.18 61.16 20.39 60.52 19.79C59.9 19.19 59.06 18.89 58 18.89H52.24V25.4ZM52.24 15.32H57.79C58.63 15.32 59.3 15.08 59.8 14.6C60.3 14.1 60.55 13.46 60.55 12.68C60.55 11.9 60.3 11.28 59.8 10.82C59.3 10.36 58.63 10.13 57.79 10.13H52.24V15.32ZM67.9722 29V12.68H71.6622V16.31L71.3622 15.77C71.7422 14.55 72.3322 13.7 73.1322 13.22C73.9522 12.74 74.9322 12.5 76.0722 12.5H77.0322V15.98H75.6222C74.5022 15.98 73.6022 16.33 72.9222 17.03C72.2422 17.71 71.9022 18.67 71.9022 19.91V29H67.9722ZM84.4129 29.36C83.1529 29.36 82.0529 29.08 81.1129 28.52C80.1929 27.96 79.4829 27.18 78.9829 26.18C78.5029 25.18 78.2629 24.01 78.2629 22.67V12.68H82.1929V22.34C82.1929 23.02 82.3229 23.62 82.5829 24.14C82.8629 24.64 83.2529 25.04 83.7529 25.34C84.2729 25.62 84.8529 25.76 85.4929 25.76C86.1329 25.76 86.7029 25.62 87.2029 25.34C87.7029 25.04 88.0929 24.63 88.3729 24.11C88.6529 23.59 88.7929 22.97 88.7929 22.25V12.68H92.7229V29H89.0029V25.79L89.3329 26.36C88.9529 27.36 88.3229 28.11 87.4429 28.61C86.5829 29.11 85.5729 29.36 84.4129 29.36ZM95.7761 29V12.68H99.4661V15.89L99.1661 15.32C99.5461 14.34 100.166 13.6 101.026 13.1C101.906 12.58 102.926 12.32 104.086 12.32C105.286 12.32 106.346 12.58 107.266 13.1C108.206 13.62 108.936 14.35 109.456 15.29C109.976 16.21 110.236 17.28 110.236 18.5V29H106.306V19.43C106.306 18.71 106.166 18.09 105.886 17.57C105.606 17.05 105.216 16.65 104.716 16.37C104.236 16.07 103.666 15.92 103.006 15.92C102.366 15.92 101.796 16.07 101.296 16.37C100.796 16.65 100.406 17.05 100.126 17.57C99.8461 18.09 99.7061 18.71 99.7061 19.43V29H95.7761ZM111.549 29V25.82L121.029 14.84L121.629 16.19H111.969V12.68H125.109V15.89L115.809 26.87L115.209 25.52H125.169V29H111.549ZM131.753 29.36C130.613 29.36 129.623 29.17 128.783 28.79C127.943 28.41 127.293 27.87 126.833 27.17C126.373 26.45 126.143 25.62 126.143 24.68C126.143 23.78 126.343 22.98 126.743 22.28C127.143 21.56 127.763 20.96 128.603 20.48C129.443 20 130.503 19.66 131.783 19.46L137.123 18.59V21.59L132.533 22.37C131.753 22.51 131.173 22.76 130.793 23.12C130.413 23.48 130.223 23.95 130.223 24.53C130.223 25.09 130.433 25.54 130.853 25.88C131.293 26.2 131.833 26.36 132.473 26.36C133.293 26.36 134.013 26.19 134.633 25.85C135.273 25.49 135.763 25 136.103 24.38C136.463 23.76 136.643 23.08 136.643 22.34V18.14C136.643 17.44 136.363 16.86 135.803 16.4C135.263 15.92 134.543 15.68 133.643 15.68C132.803 15.68 132.053 15.91 131.393 16.37C130.753 16.81 130.283 17.4 129.983 18.14L126.773 16.58C127.093 15.72 127.593 14.98 128.273 14.36C128.973 13.72 129.793 13.22 130.733 12.86C131.673 12.5 132.693 12.32 133.793 12.32C135.133 12.32 136.313 12.57 137.333 13.07C138.353 13.55 139.143 14.23 139.703 15.11C140.283 15.97 140.573 16.98 140.573 18.14V29H136.853V26.21L137.693 26.15C137.273 26.85 136.773 27.44 136.193 27.92C135.613 28.38 134.953 28.74 134.213 29C133.473 29.24 132.653 29.36 131.753 29.36ZM143.605 29V6.29H147.535V29H143.605Z" fill="#0C1E1B"/>
</svg>
