<svg width="41" height="36" viewBox="0 0 41 36" fill="none" xmlns="http://www.w3.org/2000/svg">
<path d="M6.0684 14.362C3.99323 21.2858 5.90301 28.6994 11.4823 32.9068C18.8687 38.477 29.8896 36.3185 36.098 28.0857C42.3065 19.8529 41.3516 8.66332 33.9652 3.09315C28.4981 -1.02966 21.04 -0.918429 15.0158 2.75602L15.2549 5.96756C19.4422 3.39068 24.6404 3.30232 28.4472 6.17304C33.5714 10.0373 34.2338 17.7998 29.9268 23.5112C25.6197 29.2226 17.9742 30.7201 12.85 26.8559C8.87445 23.8578 7.58455 18.5133 9.21741 13.6006L6.0684 14.362Z" fill="#015941"/>
<path d="M15.1592 20.0649L13.8303 0L-0.000273705 14.6673L9.58103 12.4196L15.1592 20.0649Z" fill="#015941"/>
</svg>
